<svg id="visual" viewBox="0 0 1920 1080" width="1920" height="1080" xmlns="http://www.w3.org/2000/svg" xmlns:xlink="http://www.w3.org/1999/xlink" version="1.1"><rect x="0" y="0" width="1920" height="1080" fill="#ffffff"></rect><path d="M0 392L40 397.8C80 403.7 160 415.3 240 524.3C320 633.3 400 839.7 480 887.2C560 934.7 640 823.3 720 747C800 670.7 880 629.3 960 666.2C1040 703 1120 818 1200 877.2C1280 936.3 1360 939.7 1440 911.3C1520 883 1600 823 1680 831C1760 839 1840 915 1880 953L1920 991L1920 1081L1880 1081C1840 1081 1760 1081 1680 1081C1600 1081 1520 1081 1440 1081C1360 1081 1280 1081 1200 1081C1120 1081 1040 1081 960 1081C880 1081 800 1081 720 1081C640 1081 560 1081 480 1081C400 1081 320 1081 240 1081C160 1081 80 1081 40 1081L0 1081Z" fill="#0066FF" stroke-linecap="round" stroke-linejoin="miter"></path></svg>