<svg id="visual" viewBox="0 0 960 540" width="960" height="540" xmlns="http://www.w3.org/2000/svg" xmlns:xlink="http://www.w3.org/1999/xlink" version="1.1"><rect x="0" y="0" width="960" height="540" fill="#ffffff"></rect><path d="M0 195L20 198C40 201 80 207 120 261.7C160 316.3 200 419.7 240 443.5C280 467.3 320 411.7 360 373.5C400 335.3 440 314.7 480 333C520 351.3 560 408.7 600 438.2C640 467.7 680 469.3 720 455.2C760 441 800 411 840 415C880 419 920 457 940 476L960 495L960 541L940 541C920 541 880 541 840 541C800 541 760 541 720 541C680 541 640 541 600 541C560 541 520 541 480 541C440 541 400 541 360 541C320 541 280 541 240 541C200 541 160 541 120 541C80 541 40 541 20 541L0 541Z" fill="#0066FF" stroke-linecap="round" stroke-linejoin="miter"></path></svg>