<svg id="visual" viewBox="0 0 900 450" width="900" height="450" xmlns="http://www.w3.org/2000/svg" xmlns:xlink="http://www.w3.org/1999/xlink" version="1.1"><rect x="0" y="0" width="900" height="450" fill="#ffffff"></rect><path d="M0 163L18.8 165.3C37.7 167.7 75.3 172.3 112.8 217.7C150.3 263 187.7 349 225.2 368.8C262.7 388.7 300.3 342.3 337.8 310.5C375.3 278.7 412.7 261.3 450.2 276.7C487.7 292 525.3 340 562.8 364.7C600.3 389.3 637.7 390.7 675.2 378.8C712.7 367 750.3 342 787.8 345.3C825.3 348.7 862.7 380.3 881.3 396.2L900 412L900 451L881.3 451C862.7 451 825.3 451 787.8 451C750.3 451 712.7 451 675.2 451C637.7 451 600.3 451 562.8 451C525.3 451 487.7 451 450.2 451C412.7 451 375.3 451 337.8 451C300.3 451 262.7 451 225.2 451C187.7 451 150.3 451 112.8 451C75.3 451 37.7 451 18.8 451L0 451Z" fill="#0066FF" stroke-linecap="round" stroke-linejoin="miter"></path></svg>