<svg width="1920" height="1080" viewBox="0 0 1920 1080" xmlns="http://www.w3.org/2000/svg"><rect width="1920" height="1080" fill="#fdfaff"/><path d="M1920,1080C1601.1666666666667,1114.8333333333333,274.6666666666667,1132.3333333333333,0,1080C-274.6666666666667,1027.6666666666667,181.16666666666669,814.3333333333334,272,766C362.8333333333333,717.6666666666666,453.3333333333333,791,545,790C636.6666666666666,789,730.6666666666666,759.8333333333334,822,760C913.3333333333334,760.1666666666666,1002.1666666666666,750.3333333333334,1093,791C1183.8333333333333,831.6666666666666,1276.6666666666667,978.6666666666666,1367,1004C1457.3333333333333,1029.3333333333333,1544,965.1666666666666,1635,943C1726,920.8333333333334,1865.5,848.1666666666666,1913,871C1960.5,893.8333333333334,2238.8333333333335,1045.1666666666667,1920,1080C1601.1666666666667,1114.8333333333333,274.6666666666667,1132.3333333333333,0,1080" fill="#000000"/></svg>